<svg width="579" height="580" viewBox="0 0 579 580" fill="none" xmlns="http://www.w3.org/2000/svg">
<rect width="579" height="580" fill="#1E1E1E"/>
<g id="dbjf 1" clip-path="url(#clip0_0_1)">
<path id="background" d="M578 0.5H0.5V579.5H578V0.5Z" fill="black" stroke="black" stroke-miterlimit="10"/>
<g id="stars">
<path id="Vector" d="M190.44 326.7C193.936 326.7 196.77 323.866 196.77 320.37C196.77 316.874 193.936 314.04 190.44 314.04C186.944 314.04 184.11 316.874 184.11 320.37C184.11 323.866 186.944 326.7 190.44 326.7Z" fill="#EFE630" stroke="black" stroke-miterlimit="10"/>
<path id="Vector_2" d="M463.95 208.31C467.098 208.31 469.65 205.758 469.65 202.61C469.65 199.462 467.098 196.91 463.95 196.91C460.802 196.91 458.25 199.462 458.25 202.61C458.25 205.758 460.802 208.31 463.95 208.31Z" fill="#EFE630" stroke="black" stroke-miterlimit="10"/>
<path id="Vector_3" d="M477.25 346.96C480.746 346.96 483.58 344.126 483.58 340.63C483.58 337.134 480.746 334.3 477.25 334.3C473.754 334.3 470.92 337.134 470.92 340.63C470.92 344.126 473.754 346.96 477.25 346.96Z" fill="#EFE630" stroke="black" stroke-miterlimit="10"/>
<path id="Vector_4" d="M196.77 182.98C197.819 182.98 198.67 182.129 198.67 181.08C198.67 180.031 197.819 179.18 196.77 179.18C195.721 179.18 194.87 180.031 194.87 181.08C194.87 182.129 195.721 182.98 196.77 182.98Z" fill="#EFE630" stroke="black" stroke-miterlimit="10"/>
<path id="Vector_5" d="M341.76 130.43C342.809 130.43 343.66 129.579 343.66 128.53C343.66 127.481 342.809 126.63 341.76 126.63C340.711 126.63 339.86 127.481 339.86 128.53C339.86 129.579 340.711 130.43 341.76 130.43Z" fill="#EFE630" stroke="black" stroke-miterlimit="10"/>
<path id="Vector_6" d="M299.34 94.98C302.14 94.98 304.41 92.7101 304.41 89.91C304.41 87.1099 302.14 84.84 299.34 84.84C296.54 84.84 294.27 87.1099 294.27 89.91C294.27 92.7101 296.54 94.98 299.34 94.98Z" fill="#EFE630" stroke="black" stroke-miterlimit="10"/>
<path id="Vector_7" d="M409.5 144.99C410.549 144.99 411.4 144.139 411.4 143.09C411.4 142.041 410.549 141.19 409.5 141.19C408.451 141.19 407.6 142.041 407.6 143.09C407.6 144.139 408.451 144.99 409.5 144.99Z" fill="#EFE630" stroke="black" stroke-miterlimit="10"/>
<path id="Vector_8" d="M446.22 291.88C446.921 291.88 447.49 291.311 447.49 290.61C447.49 289.909 446.921 289.34 446.22 289.34C445.519 289.34 444.95 289.909 444.95 290.61C444.95 291.311 445.519 291.88 446.22 291.88Z" fill="#EFE630" stroke="black" stroke-miterlimit="10"/>
<path id="Vector_9" d="M514.6 253.89C515.649 253.89 516.5 253.039 516.5 251.99C516.5 250.941 515.649 250.09 514.6 250.09C513.551 250.09 512.7 250.941 512.7 251.99C512.7 253.039 513.551 253.89 514.6 253.89Z" fill="#EFE630" stroke="black" stroke-miterlimit="10"/>
<path id="Vector_10" d="M153.08 248.2C154.831 248.2 156.25 246.781 156.25 245.03C156.25 243.279 154.831 241.86 153.08 241.86C151.329 241.86 149.91 243.279 149.91 245.03C149.91 246.781 151.329 248.2 153.08 248.2Z" fill="#EFE630" stroke="black" stroke-miterlimit="10"/>
</g>
<g id="Planet">
<path id="Vector_11" d="M285.09 495.43C339.987 495.43 384.49 450.927 384.49 396.03C384.49 341.133 339.987 296.63 285.09 296.63C230.193 296.63 185.69 341.133 185.69 396.03C185.69 450.927 230.193 495.43 285.09 495.43Z" fill="#45CBEF"/>
<g id="Mask group">
<mask id="mask0_0_1" style="mask-type:alpha" maskUnits="userSpaceOnUse" x="119" y="235" width="336" height="316">
<g id="Group">
<path id="Vector_12" d="M345.52 235L119 387.158L130.375 404.092L356.895 251.934L345.52 235Z" fill="#60D856"/>
<path id="Vector_13" d="M365.891 263.215L139.401 416.028L150.825 432.96L377.315 280.147L365.891 263.215Z" fill="#60D856"/>
<path id="Vector_14" d="M384.734 293.374L158.214 445.532L169.589 462.467L396.109 310.309L384.734 293.374Z" fill="#60D856"/>
<path id="Vector_15" d="M404.339 322.571L177.819 474.729L189.194 491.663L415.714 339.505L404.339 322.571Z" fill="#60D856"/>
<path id="Vector_16" d="M423.954 351.767L197.434 503.925L208.809 520.859L435.329 368.701L423.954 351.767Z" fill="#60D856"/>
<path id="Vector_17" d="M443.559 380.953L217.038 533.111L228.413 550.046L454.934 397.888L443.559 380.953Z" fill="#60D856"/>
</g>
</mask>
<g mask="url(#mask0_0_1)">
<path id="Vector_18" d="M285.4 495.43C340.297 495.43 384.8 450.927 384.8 396.03C384.8 341.133 340.297 296.63 285.4 296.63C230.503 296.63 186 341.133 186 396.03C186 450.927 230.503 495.43 285.4 495.43Z" fill="#67EF45"/>
</g>
</g>
</g>
<g id="chicken">
<path id="Vector_19" d="M272.29 306.52L265.17 312.43L262.61 302.69C262.61 302.69 254.28 295.94 253.15 288.06C253.15 288.06 239.87 274.32 239.64 267.79C239.64 267.79 204.51 252.45 232.1 222.06C232.1 222.06 232.21 234.01 239.1 234.13C239.1 234.13 249.1 243.47 260.49 241.13L294.72 267.25L300.22 280H296.61L299.09 283.38L296.16 284.95V287.21L293.95 290.55V293.61L292.34 297.34V302.29L288.73 301.62V304H283.1L272.29 306.52Z" fill="#EDCAA6" stroke="black" stroke-miterlimit="10"/>
<path id="Vector_20" d="M272.29 306.07L282.2 336.7C282.2 336.7 274.32 346.78 272.29 346.92C270.26 347.06 270.29 350.66 270.29 350.66L267.14 356.06L272.54 353.13C272.54 353.13 273.89 353.58 275.47 351.56C277.05 349.54 280.65 348.63 280.65 348.63C280.65 348.63 285.38 343.45 290.78 346.63C296.18 349.81 308.12 355.42 309.02 354.74L313.07 357.89L311.21 352.41C311.21 352.41 310.26 350.35 298.55 343.59C298.55 343.59 316.11 344.04 316.11 342.47L320.73 342.33L314.73 338.87C314.73 338.87 301.9 339.77 294.73 335.26C294.73 335.26 284.79 323.66 281.43 304.01L272.29 306.07Z" fill="#422F24" stroke="black" stroke-miterlimit="10"/>
<path id="Vector_21" d="M304.44 280.28C304.44 280.28 314.29 301.68 306.44 312.94C306.44 312.94 296.98 316.77 296.76 320.6L293.98 323.25L298.56 321.72L303.96 319.92C303.96 319.92 310.04 319.02 307.79 329.38L306.67 334.56L312.07 330.73C312.07 330.73 315.45 330.73 316.07 328.48L334.99 336.81L338.82 338.38L335.66 334.11L335.84 332.73L322.6 322.62C322.6 322.62 333.6 330.05 340.84 328.7L343.32 328.93L338.82 325.55C338.82 325.55 325.31 323.86 320.69 313.78C317.844 307.385 316.058 300.569 315.4 293.6L307.29 276.68L304.44 280.28Z" fill="#422F24" stroke="black" stroke-miterlimit="10"/>
<path id="Vector_22" d="M339.5 238L329.71 283.38L327 278.38L322.28 287.17V283C322.28 283 316.2 294.11 309.21 294.11C302.22 294.11 311.47 289.6 311.47 289.6C311.47 289.6 305.57 287.16 306.61 278.81C306.61 278.81 300.66 280.37 300.55 272.6L339.5 238Z" fill="#EDCAA6" stroke="black" stroke-miterlimit="10"/>
<path id="Vector_23" d="M218.59 137.3C218.59 137.3 224.89 148.11 231.42 151.93C231.42 151.93 237.05 151.03 240.88 154.64L252.82 152.38C252.82 152.38 260.7 146.75 265.65 148.38C265.65 148.38 279.16 144.55 283.44 147.48C283.44 147.48 298.75 142.75 301.44 144.1C301.44 144.1 312.05 140.05 313.5 137.35C314.95 134.65 341.74 152.66 341.74 152.66C341.74 152.66 349.4 153.33 349.4 158.96C349.4 158.96 348.66 160.32 344.98 158.96L352.1 164.82H348.66C348.66 164.82 355.93 172.25 356.61 177.65C356.61 177.65 368.99 185.54 359.98 207.65L357.28 205.85C356.874 209.459 355.574 212.909 353.5 215.89C353.5 215.89 349.9 229.4 340.22 239.53C330.54 249.66 313.42 261.37 313.42 261.37L315.42 257.77C315.42 257.77 306.64 273.08 301.23 274.21L303.93 269.93L298.98 271.28L301.46 269.28C301.46 269.28 297.4 270.41 294.7 268.61C294.7 268.61 287.95 270.41 284.79 270.41L285.47 264.78C285.47 264.78 280.74 266.78 272.86 263.65L273.53 258.47C267.42 259.602 261.117 259.059 255.29 256.9C255.29 256.9 251.69 252.62 260.47 242.49C260.47 242.49 244.94 247.67 239.08 235.49C239.08 235.49 231.65 234.14 232.08 221.3L230.5 215.21C226.778 214.368 223.395 212.425 220.793 209.634C218.19 206.843 216.489 203.332 215.91 199.56C215.91 199.56 207.31 196.56 206.63 190.21C206.63 190.21 196.5 185.04 193.57 180.31C193.57 180.31 197.85 176.93 200.1 177.38L192.45 166.38L201.68 141.38C201.68 141.38 212.06 133.92 218.59 137.3Z" fill="#E5BD8F" stroke="black" stroke-miterlimit="10"/>
<path id="Vector_24" d="M301.01 162.52C301.01 162.52 285.58 147.99 262.84 156.32C262.84 156.32 247.52 155.2 242.84 168.71C242.84 168.71 225.84 175.24 230.05 199.56H231.96L232.03 202.04L234.03 203.84C234.03 203.84 231.56 208.34 237.41 211.27C237.41 211.27 236.74 223.43 238.99 228.61C240.064 228.665 241.117 228.293 241.918 227.576C242.72 226.858 243.205 225.854 243.27 224.78C243.214 226.287 243.562 227.781 244.28 229.107C244.998 230.434 246.058 231.543 247.35 232.32H250.69C250.458 233.477 250.479 234.67 250.752 235.818C251.025 236.966 251.543 238.041 252.27 238.97C252.27 238.97 259.48 236.71 259.03 227.26C259.03 227.26 265.11 228.83 271.41 222.26C271.41 222.26 259.41 209.36 277.9 206.58L290.33 187.36L294.27 185.45L301.01 162.52Z" fill="#EDCAA6" stroke="black" stroke-miterlimit="10"/>
<path id="Vector_25" d="M240.88 154.64C240.88 154.64 236.88 154.19 237.5 157.56C237.5 157.56 231.65 156.89 232.55 161.39C232.55 161.39 217.46 160.04 219.49 171.3C219.49 171.3 209.58 177.15 215.44 185.71" stroke="black" stroke-miterlimit="10"/>
<path id="Vector_26" d="M225.34 157.11C225.34 157.11 217.46 151.71 211.16 152.11C211.16 152.11 209.93 161.35 213.59 163.03C213.59 163.03 207.96 165.15 208.88 170.11C208.88 170.11 205.53 165.17 196.75 165.84" stroke="black" stroke-miterlimit="10"/>
<path id="Vector_27" d="M213.59 142.59L205.3 148.33L206.65 150.36L201.09 154.62L205.08 158.91L201.93 162.52" stroke="black" stroke-miterlimit="10"/>
<path id="Vector_28" d="M304.28 159.57L292.75 157.27L293.95 161.15L288.47 162.52L293.95 164.86L289.86 168.48L292.56 172.09H288.47L289.41 175.01H279.73L283.33 182.22L288.96 180.42L287.61 186.72L290.31 187.4L287.98 191H289.61L289.18 194.61H292.01L284 204.29H290.37L288.51 206.99H292.01V210.65L297.51 209.69L297.29 212.4H301.23V217.69H304.28L303.67 223.42L308.66 223.99V227.57H311.19L312.15 230.86H314.5L318.31 232.32V230.23L324.31 233.34L325.66 235.59H328L330.5 231.18H337.59L335.55 225.86L341.29 225.67L338.95 219.15L341.29 217.69L339.02 214.26L342.1 214.2L340.19 209.89L345.03 211.94L343.23 207.22L347.51 206.99L344.58 202.71L350.61 205.31L347.28 201.14L352.13 196.43L348.18 195.06L352.13 192.79V189.18L356.96 189.65L355.84 187.4L360.34 183.8L355.16 184.02L356.63 177.6L349.76 181.09L349.53 177.49L346.38 182.67L344.8 176.82L342.78 177.04L342.33 172.99L338.72 173.89L336.47 170.96L329.83 172.2L304.28 159.57Z" fill="#EFDBCA" stroke="black" stroke-miterlimit="10"/>
<path id="Vector_29" d="M326.9 232.32C326.9 232.32 343.34 214.76 340.64 194.94L343.79 187.29C343.79 187.29 347.79 175.35 329.79 172.2L332.94 116.8C332.94 116.8 335.87 114.1 334.94 111.4C334.94 111.4 342.14 112.75 341.47 99.92L346.65 96.09C346.65 96.09 349.35 101.49 354.08 99.69C358.81 97.89 364.66 86.63 364.66 86.63C364.66 86.63 366.24 83.7 366.01 81.45C365.78 79.2 373.01 71.77 373.01 71.77C373.01 71.77 372.84 65 367.89 61L364.28 55.37H362.28C362.28 55.37 362.02 47.94 359.54 50.64C359.54 50.64 357.54 45.24 355.94 44.79C355.94 44.79 355.49 44.11 355.94 46.36C356.39 48.61 355.72 49.29 355.72 49.29C355.72 49.29 352.79 39.38 350.72 41.41C350.45 42.2146 350.45 43.0854 350.72 43.89C350.964 45.0776 350.964 46.3024 350.72 47.49C349.559 45.0919 348.88 42.4895 348.72 39.83C348.72 36.23 345.8 45.24 345.8 45.24C345.8 45.24 345.12 47.04 344.22 45.01C343.666 43.5782 343.437 42.0411 343.55 40.51C343.55 40.51 343.55 39.16 341.97 41.41C340.39 43.66 341.5 45.2 341.5 45.2C341.5 45.2 340.15 43.2 339.5 44.07C338.537 45.5351 338.082 47.2759 338.205 49.0249C338.328 50.7738 339.022 52.434 340.18 53.75C343.78 58.03 359.09 62.75 359.09 62.75C359.09 62.75 362.02 67.48 359.09 65.9C356.16 64.32 346.03 58.9 339.73 67.48L336.35 68.61L323.06 75.14C323.06 75.14 318.33 83.47 316.31 100.14C314.29 116.81 316.53 121.31 314.31 131.67C312.09 142.03 310.26 155.99 301.03 162.52C291.8 169.05 294.27 185.52 294.27 185.52L308.66 224L326.9 232.32Z" fill="#F93D58" stroke="black" stroke-miterlimit="10"/>
<path id="Vector_30" d="M360.23 67.49L361.35 62.54L360.23 63.33V60.43L359.33 61.86L358.43 57.86V60.6L355.95 55.33V58.75L352.57 53.08L353.7 57.36L349.27 53.08L350.55 55.56L347.17 52.63L348.07 54.63L345.14 52V53.52L342.66 52.45L343.11 53.8L336.81 54.25L338.39 55.15L334.11 55.83L334.78 56.73C334.78 56.73 323.78 56.73 317.89 71.37H319.32L317.89 73.6H319.41L317.41 77L319.22 76.32V78.8L320.79 77.67L320.34 79.25L324.17 75.42L323.5 77.62L331.08 71.2L339.72 67.49C339.72 67.49 348.74 59.83 360.23 67.49Z" fill="#F5CB91" stroke="black" stroke-miterlimit="10"/>
<path id="Vector_31" d="M371.6 71.43C374.05 72.1747 376.189 73.6991 377.693 75.7713C379.196 77.8436 379.982 80.3502 379.93 82.91C379.93 82.91 379.93 83.59 377.93 82.46C377.93 82.46 372.3 82.46 369.82 81.11C367.34 79.76 366.1 81.45 366.1 81.45C366.1 81.45 364.83 76.61 356.52 79.2C348.21 81.79 358.45 77.27 358.45 77.27C358.45 77.27 372.95 77.06 371.6 71.43Z" fill="#FFFD00" stroke="black" stroke-miterlimit="10"/>
<path id="Vector_32" d="M345.93 68.05C345.93 68.05 347.93 64.9 351.33 68.28C354.73 71.66 350.21 72.56 350.21 72.56C350.21 72.56 344.58 72.56 345.93 68.05Z" fill="#CC8A32" stroke="black" stroke-miterlimit="10"/>
<path id="Vector_33" d="M349.19 70.87C349.936 70.87 350.54 70.2656 350.54 69.52C350.54 68.7744 349.936 68.17 349.19 68.17C348.444 68.17 347.84 68.7744 347.84 69.52C347.84 70.2656 348.444 70.87 349.19 70.87Z" fill="black" stroke="black" stroke-miterlimit="10"/>
<path id="Vector_34" d="M330.73 93.61C330.73 93.61 339.73 93.16 337.49 81C337.49 81 339.49 82.13 339.06 80.55C339.06 80.55 339.51 84.55 344.69 84.15C348.254 83.7919 351.788 83.1905 355.27 82.35" stroke="black" stroke-miterlimit="10"/>
<path id="Vector_35" d="M338.61 86.63C338.61 86.63 337.26 91.63 343.11 89.56" stroke="black" stroke-miterlimit="10"/>
<path id="Vector_36" d="M336.81 90.91C336.81 90.91 341.09 96.09 329.6 100.59C329.6 100.59 330.05 102.84 325.33 104.59C325.543 105.638 325.417 106.727 324.972 107.699C324.526 108.671 323.783 109.477 322.85 110" stroke="black" stroke-miterlimit="10"/>
<path id="Vector_37" d="M334.56 99.47C335.547 100.103 336.658 100.519 337.818 100.691C338.978 100.864 340.161 100.788 341.29 100.47" stroke="black" stroke-miterlimit="10"/>
<path id="Vector_38" d="M330.5 102.17C330.5 102.17 332.08 105.32 334.33 105.32C336.58 105.32 335.01 107.32 335.01 107.32" stroke="black" stroke-miterlimit="10"/>
<path id="Vector_39" d="M331.41 75.37C331.41 75.37 329.41 79.11 330.73 82.08" stroke="black" stroke-miterlimit="10"/>
<path id="Vector_40" d="M327.13 83.93C327.13 83.93 326.93 89.33 326.24 90.93" stroke="black" stroke-miterlimit="10"/>
<path id="Vector_41" d="M344.5 71.09C344.5 71.09 348.78 76.72 354.3 71.43" stroke="black" stroke-miterlimit="10"/>
<path id="Vector_42" d="M353.7 68.39C353.7 68.39 350.99 63.01 344.8 66.72" stroke="black" stroke-miterlimit="10"/>
<path id="Vector_43" d="M366.08 72.22C366.08 72.22 367.66 74.02 369.24 74.02" stroke="black" stroke-miterlimit="10"/>
</g>
</g>
<defs>
<clipPath id="clip0_0_1">
<rect width="578.5" height="580" fill="white"/>
</clipPath>
</defs>
</svg>
