<svg width="577" height="692" viewBox="0 0 577 692" fill="none" xmlns="http://www.w3.org/2000/svg">
<rect width="577" height="692" fill="#1E1E1E"/>
<g id="vhh 1" clip-path="url(#clip0_0_1)">
<path id="background" d="M576.5 0.5H0.5V606.24H576.5V0.5Z" fill="black" stroke="black" stroke-miterlimit="10"/>
<g id="stars">
<path id="Vector" d="M164.37 296.61C168.037 296.61 171.01 293.637 171.01 289.97C171.01 286.303 168.037 283.33 164.37 283.33C160.703 283.33 157.73 286.303 157.73 289.97C157.73 293.637 160.703 296.61 164.37 296.61Z" fill="#EFE630" stroke="black" stroke-miterlimit="10"/>
<path id="Vector_2" d="M451.3 172.41C454.603 172.41 457.28 169.733 457.28 166.43C457.28 163.127 454.603 160.45 451.3 160.45C447.997 160.45 445.32 163.127 445.32 166.43C445.32 169.733 447.997 172.41 451.3 172.41Z" fill="#EFE630" stroke="black" stroke-miterlimit="10"/>
<path id="Vector_3" d="M465.25 317.87C468.917 317.87 471.89 314.897 471.89 311.23C471.89 307.563 468.917 304.59 465.25 304.59C461.583 304.59 458.61 307.563 458.61 311.23C458.61 314.897 461.583 317.87 465.25 317.87Z" fill="#EFE630" stroke="black" stroke-miterlimit="10"/>
<path id="Vector_4" d="M278.61 53.52C281.543 53.52 283.92 51.1426 283.92 48.21C283.92 45.2774 281.543 42.9 278.61 42.9C275.677 42.9 273.3 45.2774 273.3 48.21C273.3 51.1426 275.677 53.52 278.61 53.52Z" fill="#EFE630" stroke="black" stroke-miterlimit="10"/>
<path id="Vector_5" d="M394.18 105.99C395.279 105.99 396.17 105.099 396.17 104C396.17 102.901 395.279 102.01 394.18 102.01C393.081 102.01 392.19 102.901 392.19 104C392.19 105.099 393.081 105.99 394.18 105.99Z" fill="#EFE630" stroke="black" stroke-miterlimit="10"/>
<path id="Vector_6" d="M504.43 220.23C505.529 220.23 506.42 219.339 506.42 218.24C506.42 217.141 505.529 216.25 504.43 216.25C503.331 216.25 502.44 217.141 502.44 218.24C502.44 219.339 503.331 220.23 504.43 220.23Z" fill="#EFE630" stroke="black" stroke-miterlimit="10"/>
<path id="Vector_7" d="M125.18 214.25C127.014 214.25 128.5 212.764 128.5 210.93C128.5 209.096 127.014 207.61 125.18 207.61C123.346 207.61 121.86 209.096 121.86 210.93C121.86 212.764 123.346 214.25 125.18 214.25Z" fill="#EFE630" stroke="black" stroke-miterlimit="10"/>
</g>
<g id="Planet">
<path id="Vector_8" d="M303.84 577.35C361.432 577.35 408.12 530.662 408.12 473.07C408.12 415.478 361.432 368.79 303.84 368.79C246.248 368.79 199.56 415.478 199.56 473.07C199.56 530.662 246.248 577.35 303.84 577.35Z" fill="#E22323"/>
<g id="Mask group">
<mask id="mask0_0_1" style="mask-type:alpha" maskUnits="userSpaceOnUse" x="36" y="369" width="398" height="323">
<g id="Group">
<path id="Vector_9" d="M175.41 437.01L266.66 369L181.83 456.6L255.85 402.43L199.53 456.6L314.96 389.58L197.4 487.89L292.9 428.44L213.34 509.8L356.14 420.8L236.59 519.1L346.84 462.65L235.26 558.95L392.01 453.35L273.12 564.93L350.83 532.39L302.34 585.52L433.85 494.53L316.95 610.1L423.22 529.07L266.66 691.75L36 506.48L175.41 437.01Z" fill="#45CBEF"/>
</g>
</mask>
<g mask="url(#mask0_0_1)">
<path id="Vector_10" d="M303.28 577.55C360.872 577.55 407.56 530.862 407.56 473.27C407.56 415.678 360.872 368.99 303.28 368.99C245.688 368.99 199 415.678 199 473.27C199 530.862 245.688 577.55 303.28 577.55Z" fill="#23CBE2"/>
</g>
</g>
</g>
<g id="chicken">
<path id="Vector_11" d="M171.01 145.84C172.109 145.84 173 144.949 173 143.85C173 142.751 172.109 141.86 171.01 141.86C169.911 141.86 169.02 142.751 169.02 143.85C169.02 144.949 169.911 145.84 171.01 145.84Z" fill="#EFE630" stroke="black" stroke-miterlimit="10"/>
<path id="Vector_12" d="M323.11 90.71C324.209 90.71 325.1 89.8191 325.1 88.72C325.1 87.621 324.209 86.73 323.11 86.73C322.011 86.73 321.12 87.621 321.12 88.72C321.12 89.8191 322.011 90.71 323.11 90.71Z" fill="#EFE630" stroke="black" stroke-miterlimit="10"/>
<path id="Vector_13" d="M432.7 260.09C433.435 260.09 434.03 259.495 434.03 258.76C434.03 258.025 433.435 257.43 432.7 257.43C431.965 257.43 431.37 258.025 431.37 258.76C431.37 259.495 431.965 260.09 432.7 260.09Z" fill="#EFE630" stroke="black" stroke-miterlimit="10"/>
<path id="Vector_14" d="M320.67 106.93L310 99.26C310 99.26 304.46 107.79 300.62 107.79L298.06 117.17V106.68L295.06 106.13L297.26 99.31L293.78 104L292.07 102.29L294.63 100.16L293.78 97.16L296.78 94.61L294.65 92.9C294.65 92.9 290.81 101.9 289.96 106.97C289.96 106.97 289.11 105.13 289.96 98.8L291.69 92.9L287.4 98.9C287.4 98.9 287.4 95.9 293.4 88.67L290 91.15L288.94 88.6C288.94 88.6 287.44 88.17 283.18 92.01C283.18 92.01 277.18 89.7 284.88 83.39L271.66 89.45L275.93 82.2L282.33 79.2H277.23L286.16 77.5L279.34 76.22L290.85 71.95L285.1 66.79C287.731 68.3704 290.775 69.1294 293.84 68.97C297.116 68.7497 300.406 68.8939 303.65 69.4L302.39 66.79L307 68.13L308.71 65.13L309.56 67.26L313.82 69.4C313.82 69.4 316 59.17 325.78 56.19L324.08 59.6L324.93 60.88C324.93 60.88 321.93 65.14 321.93 68.55L330.88 61.73L326.62 57.89L336.42 63.44V61.21L338.56 64.71L343.67 65.57L340.26 66.42L342 68.13L355.64 69.83L361.19 70.26L367.59 67.26V69.76C367.59 69.76 371 69.82 375.26 66.84L374 68.98L376.56 68.55V71.34L373.56 72.34L381.66 74.05H372.66L376.5 75.33L373.5 78.33L376.91 81.33L374.35 83.88C374.35 83.88 375.63 85.59 374.77 89L380.32 94.55L368.85 93.68L372.69 97.95L364.16 93.68L370.16 100.51L363.34 95.82L371 107.36L355.21 94.57L353.08 97.12L348 96.68L345.87 97.53L347.57 99.66L342.45 100.52L339.9 102.22H342.9L340.34 106.06L335.65 106.49L335.23 102.65L339 95.42L337.72 92.01C337.72 92.01 342.84 90.73 337.3 83.01C331.76 75.29 327.49 79.17 327.49 79.17L327.92 81.31C327.92 81.31 315.12 83.86 321.09 93.67L320.67 97.94V106.93Z" fill="white" stroke="black" stroke-miterlimit="10"/>
<path id="Vector_15" d="M353.5 115.46L350.5 113.33L350.92 111.2H349.51L350.51 108.2L348.38 109.06L350.08 106.06L342.83 107.77L344.96 104.35H341.41L340.27 106.06L335.58 106.49L335.16 102.65L339 95.42L337.72 92.01C337.72 92.01 342.84 90.73 337.3 83.01C331.76 75.29 327.49 79.17 327.49 79.17L327.92 81.31C327.92 81.31 315.12 83.48 321.09 93.68L320.67 97.95V106.95L310 99.26L308.73 102.68L307.87 103.53L306.08 104.28L307.02 105.28L305.02 105.43L303.54 107.43L305.36 107.87L301.53 108.72L304.53 109.15L301.12 110L303.68 110.42L301.97 112.13L299.58 111.93L301.12 113.41L299.03 113.96V115.96L296.03 118.11L295.61 120.67L292.19 124.93H293.3L288.36 136.87L287.5 153.51L283.67 164.17C283.67 164.17 283.24 177.81 267.89 193.17L262.34 198.71L249.55 208.09L246.99 211.93L241.77 215.68L239.64 221.68L246.46 215.28L238.36 226.79V229.96L230.26 245.96L226 264.29C226 264.29 223 270.29 223 275.38H224.91L225.56 278.79C225.56 278.79 224.28 289.45 227.26 292.86C227.14 292.524 227.09 292.168 227.112 291.812C227.133 291.456 227.227 291.108 227.387 290.79C227.546 290.471 227.769 290.188 228.041 289.958C228.313 289.728 228.629 289.555 228.97 289.45C228.97 289.45 232.38 300.11 236.22 305.66C237.896 302.215 239.32 298.652 240.48 295C240.48 295 242.62 297.56 244.75 297.13C246.88 296.7 243.9 289.45 246.03 287.75L248.16 292.86L246.46 296.68L248.6 296.26L246.89 297.96L245.61 301.8L243.05 302.23L244.33 304.36L240.07 308.68C240.07 308.68 217.47 311.24 214.07 333.84L208.94 337.68L212.35 338.53L212.77 342.8L214.05 350.05L218.32 346.21L219.6 355.59L225.14 350.9C225.14 350.9 221.3 356.02 236.66 354.31L235.8 352.18L238.36 348.34L243.91 355.17C243.91 355.17 243.05 348.77 246.91 348.34C250.77 347.91 251.6 342.34 251.6 342.34L252.88 343.2L251.6 353.86L251.31 355.56L246 357.26L249.84 360.67H245.62L248.13 362.8L246 364.51L246.85 366.64L233.63 372.64C235.97 371.896 238.431 371.607 240.88 371.79C244.29 372.21 228.94 373.92 228.94 373.92H225.37L226.81 375.2L225.1 378.2L225.95 379.06H221.28L223.4 380.76C223.4 380.76 213.3 387.59 219.2 395.9C225.1 404.21 270.73 405.5 270.73 405.5L284.8 407.16L279.26 404.64C279.26 404.64 305.26 414.03 310.82 412.75C310.82 412.75 289.5 408.91 283.53 402.08L285.02 401.95L281.82 399.53C281.82 399.53 291.2 402.08 292.48 400.38C286.395 400.078 280.568 397.835 275.85 393.98L273.29 391.42L275 386.68L273.29 383.68L274.57 381.12L272.86 378.99L275 376.43L274.14 374.3H272.44L277.13 370.46L273.72 371.74L273.29 367.05L270.29 365.34L273.29 364.49L271.16 361.93L272.44 353.4L269.88 349.14L271.16 341.89L272.86 342.31L271.16 338.9L277.16 331.22L290 331.68L281.26 326.2L287.87 326.14V319.31L285.1 318.73L294.27 308.23C294.27 308.23 297.27 305.67 296.4 310.79C295.53 315.91 292.56 316.79 292.56 324.43C292.56 332.07 285.1 339.05 285.1 339.05L287 340.68L283.59 343.24H287.42L283.16 347.93L288.7 346.22L284 351.68L288.69 348.68L286.56 355.08L292.96 347.83L292.1 353.37L295.1 348.68L296.8 350.38C294.968 353.164 292.274 355.272 289.13 356.38C283.59 358.52 283.13 368.33 283.13 368.33L290.38 366.19C290.38 366.19 291.66 376.43 299.33 367.9C307 359.37 306.16 361.9 306.16 361.9L307.01 378.96L309.57 374.69L312.13 361.9L315.97 364.9L311.7 369.59L311.27 378.59L314.69 379.02L330.46 364.94L324.07 379.87L336 366.21L336.85 372.21L330.45 378.61C330.45 378.61 329.6 385.43 338.13 382.02L340.26 391.83C340.26 391.83 356.04 420.83 396.13 405.48C396.13 405.48 405.13 414.86 407.21 400.79C407.21 400.79 413.21 409.31 433.03 395.88C433.03 395.88 456.68 397.37 459.24 381.17C459.24 381.17 452.42 376.9 439.24 383.73C439.24 383.73 443.93 376.9 437.96 371.36L427.3 378.61L414.5 372.21L406 373.46L406.42 369.62L401.73 367.07L394 369.2L398.69 364.93L391.44 364.51L387.17 364.93L390.58 361.52L382.48 359.39C382.48 359.39 380.35 367.07 373.53 366.64C366.71 366.21 366.61 362.06 366.61 362.06L364.14 361.06L366.61 358.93L362.88 357.68L365.02 355.13L362.46 353.85L365.02 349.16C365.02 349.16 364.59 344.89 357.34 348.3C357.34 348.3 345.83 356.83 350.52 347.88C355.21 338.93 348.39 336.36 348.39 336.36C348.39 336.36 344.97 335.94 349.66 330.36C354.35 324.78 352.66 317.57 352.66 317.57L356.07 309.47L357.35 288.57L370.57 273.22L375.69 268.53C375.69 268.53 380.38 274.07 385.07 266.39L388.48 271.94L393.6 262.56C393.6 262.56 404.69 257.87 407.24 250.19C409.79 242.51 408.1 238.68 408.1 238.68L413.64 242.51C413.64 242.51 418.33 226.73 415.35 222.51C415.35 222.51 418.76 221.66 414.92 208.44L414.07 196.07L409.38 189.25C409.38 189.25 411.08 186.25 405.97 181.57C405.97 181.57 406.82 179.01 398.72 170.91L401.72 170.48L397.03 162.38L392.34 158.97C392.34 158.97 395.75 157.26 390.21 150.87V146.18L385.94 147.46C385.94 147.46 379.12 138.46 375.28 137.65L377.41 136.37L366.66 126.82L369.31 126.13L366.66 123.92L364.19 124L355.66 115.47L353.5 115.46Z" fill="#F2F2F2" stroke="black" stroke-miterlimit="10"/>
<path id="Vector_16" d="M317.68 128.68C317.68 128.68 314.68 128.68 318.11 120.58C321.54 112.48 310.93 122.58 317.29 112.21C317.29 112.21 320.67 110.34 317.29 108.64C313.91 106.94 316.36 103.81 316.36 103.81L320.71 106.93V97.93L321.13 93.66C321.13 93.66 314.74 84.66 327.96 81.3L327.53 79.16C327.53 79.16 330.74 76.57 335.1 80.42C335.1 80.42 344.16 89.42 337.76 91.96L339 95.42L335.17 102.68L335.59 106.52L334.74 110.35C334.74 110.35 340.28 111.21 338.15 116.75C338.15 116.75 334.74 119.31 338.58 121.44C342.42 123.57 338.15 134.24 336.87 125.71C335.59 117.18 333.87 128.27 334.1 117.18C335.015 115.782 335.53 114.16 335.59 112.49C335.59 112.49 332.18 112.49 331.33 111.21L334.1 107.28C334.1 107.28 333.89 104.81 332.18 106.52C331.339 107.431 330.318 108.157 329.18 108.65C329.18 108.65 326.62 109.93 325.76 104.81C325.76 104.81 325.76 103.11 324.06 105.66C322.36 108.21 324.06 108.66 324.06 108.66C324.06 108.66 326.62 109.66 326.62 111.07C326.62 112.48 320.62 112.07 320.62 112.07C320.443 112.251 320.312 112.47 320.236 112.711C320.16 112.952 320.141 113.207 320.182 113.456C320.223 113.705 320.322 113.942 320.471 114.145C320.62 114.349 320.815 114.515 321.04 114.63C322.75 115.91 325.73 116.76 323.17 121.45C321.751 124.146 319.896 126.589 317.68 128.68V128.68Z" fill="#C42400" stroke="black" stroke-miterlimit="10"/>
<path id="Vector_17" d="M330.26 124.2C330.26 124.2 328.98 119.94 323.26 121.43C323.26 121.43 326.05 117.7 322.63 115.62C319.21 113.54 320.07 113.12 320.71 112.05C320.71 112.05 326.46 112.39 326.71 111.05C326.96 109.71 324.15 108.64 324.15 108.64C324.15 108.64 322.23 108 324.15 105.64C326.07 103.28 325.64 103.72 325.85 104.79C326.06 105.86 326.92 109.27 329.27 108.63C329.894 108.512 330.485 108.26 331.003 107.893C331.521 107.525 331.953 107.05 332.27 106.5C332.27 106.5 334.19 104.82 334.19 107.26L331.42 111.19C331.42 111.19 332.48 112.68 335.68 112.47C335.72 114.156 335.196 115.807 334.19 117.16C332.48 119.5 331.63 126.75 331.63 126.75L330.26 124.2Z" fill="#FFE127" stroke="black" stroke-miterlimit="10"/>
<path id="Vector_18" d="M246 287.75L250.69 283.91C250.69 283.91 249 289.91 257.52 283.91C266.04 277.91 268.6 275.38 268.6 275.38H275.23L271.58 279.77L291.63 266C291.63 266 302.29 265.57 304.42 239.13C304.42 239.13 311.67 229.75 309.11 224.21C309.11 224.21 313.8 219.09 307.83 208" stroke="black" stroke-miterlimit="10"/>
<path id="Vector_19" d="M283.57 164.08L275.89 161.52C275.89 161.52 278.02 154.67 275.89 152.33L278.47 135.05L275.89 133.05C275.89 133.05 279.3 122.73 268.64 107.38L265.64 105.25C265.64 105.25 268.64 84.06 265.64 66.3C265.64 66.3 262.64 79.23 260.53 79.66C260.53 79.66 251.53 48.1 238.78 34.46C238.78 34.46 215.78 10.15 220.87 25.46C220.87 25.46 214.87 26.31 221.72 36.98C228.57 47.65 231.1 51.47 231.1 51.47L227.69 49.34L232.81 61.28C232.81 61.28 232.81 68.53 234.94 71.94L231.53 70.24L235.91 78.24L237.07 84.75L230.25 83.89L228.54 71.95L226.84 65.13L220.44 57.46L210.72 56.18C210.72 56.18 204.66 62.18 209.78 66.84C210.932 69.485 212.865 71.7146 215.32 73.23L208.93 72.89C215.545 75.1224 221.535 78.8923 226.41 83.89C226.41 83.89 220.41 84.32 217.88 87.73L211.88 83.47L214.44 90.29L211.07 93.68L197 94.14C197 94.14 182.92 101.39 179.51 111.2L181.22 112.48L168.42 121.86C168.42 121.86 163.73 125.68 166.29 134.68L168.85 133.4V131.27L174.39 132.12L176.1 125.68C176.1 125.68 178.66 127.81 182.5 125.25L195.72 124.82L203.82 132.93C203.82 132.93 193.16 134.21 189.75 136.34L201.69 136.76L200 140.62H181.22L182.07 142.75L178.66 144.89C178.66 144.89 169.66 133.37 162.45 136.36C155.24 139.35 157.34 148.3 157.34 148.3L157.04 151.23L166.29 151.71C166.29 151.71 165.01 152.99 165.44 157.25C165.44 157.25 162.3 163.25 163.65 164.08L162.88 171.33L185.48 173.03L175.25 179.86L160.75 177.68L156.06 190.05L159.06 191.76L163.33 189.62L161.62 200.29L167.16 206.68L173.99 203.68L175.27 210.5L185.06 224.68L186.78 217.43L182.5 214.02L190.17 209.76L202.11 211.04L199.4 224.68L194.86 232.79L199.98 234.49L201.26 230.65L210.26 240.03L205.57 251.12L214.52 239.61L217.45 251.12L223.05 256.24L226.74 261.33L230.3 246L238.4 230V226.83L246.5 215.32L239.68 221.72L241.81 215.72L246.93 211.88L249.49 208.04C249.49 208.04 282.71 186.25 283.57 164.08Z" fill="white" stroke="black" stroke-miterlimit="10"/>
<path id="Vector_20" d="M316.07 107.77C316.07 107.77 313.42 111.2 312.14 106.08C310.86 100.96 312.68 101.18 312.68 101.18L316.32 103.81C315.803 104.326 315.493 105.014 315.447 105.743C315.401 106.472 315.622 107.193 316.07 107.77V107.77Z" fill="black" stroke="black" stroke-miterlimit="10"/>
<path id="Vector_21" d="M336.64 111.05C336.64 111.05 341.25 110.82 340.98 105.05L340.28 106.05L335.59 106.48L334.74 110.31C335.425 110.396 336.077 110.65 336.64 111.05V111.05Z" fill="black" stroke="black" stroke-miterlimit="10"/>
</g>
</g>
<defs>
<clipPath id="clip0_0_1">
<rect width="577" height="691.55" fill="white"/>
</clipPath>
</defs>
</svg>
